# xmcd
#
# Track frame offsets:
#	150
#	9046
#	24053
#	30294
#	35243
#	40291
#	48464
#	53931
#	62280
#	72491
#	77283
#	88476
#	92483
#	106537
#	110345
#	120420
#
# Disc length: 1657 seconds
#
# Revision: 0
# Processed by: cddbd v1.5.2PL0 Copyright (c) Steve Scherf et al.
# Submitted via: EasyCDDAExtractor 12.0.0.1
#
DISCID=b3067710
DTITLE=TV Themes
DYEAR=2003
DGENRE=TV
TTITLE0=Barney
TTITLE1=Teletubbies
TTITLE2=Noddy
TTITLE3=Bananas In Pyjamas
TTITLE4=Rugrats
TTITLE5=Tweenies
TTITLE6=Paddington Bear
TTITLE7=Sesame Street
TTITLE8=Postman Pat
TTITLE9=Mr Men
TTITLE10=Winnie The Pooh
TTITLE11=Blue Peter
TTITLE12=Bob The Builder
TTITLE13=Rosie and Jim
TTITLE14=Rupert The Bear
TTITLE15=Bear In The Big Blue House
EXTD=
EXTT0=
EXTT1=
EXTT2=
EXTT3=
EXTT4=
EXTT5=
EXTT6=
EXTT7=
EXTT8=
EXTT9=
EXTT10=
EXTT11=
EXTT12=
EXTT13=
EXTT14=
EXTT15=
PLAYORDER=
